<?xml version="1.0" encoding="utf-8"?>
<!-- Generator: Adobe Illustrator 17.1.0, SVG Export Plug-In . SVG Version: 6.00 Build 0)  -->
<!DOCTYPE svg PUBLIC "-//W3C//DTD SVG 1.1//EN" "http://www.w3.org/Graphics/SVG/1.1/DTD/svg11.dtd">
<svg version="1.1" id="Layer_1" xmlns="http://www.w3.org/2000/svg" xmlns:xlink="http://www.w3.org/1999/xlink" x="0px" y="0px"
	 viewBox="0 0 453.86 250.973" style="enable-background:new 0 0 453.86 250.973;" xml:space="preserve">
<g>
	<path style="fill:#2B388F;" d="M271.513,82.805c-7.425,0-13.491,6.762-12.124,14.515c0.956,5.441,5.45,9.406,11.224,9.406
		c7.586,0,13.654-6.767,12.284-14.517C281.967,86.93,277.282,82.805,271.513,82.805z"/>
	<path style="fill:#2B388F;" d="M334.474,3.957c20.122,0,26.31,17.32,26.31,17.32c6.942-4.617,9.439-8.249,8.911-11.218
		C368.415,2.8,349.28,0,339.224,0C248.823,0,222.91,183.263,184.969,183.263c-2.31,0-3.637-0.991-4.015-3.133
		c-1.135-6.434,1.032-21.282,4.935-38.437c26.749-37.276,51.068-83.633,47.289-105.073c-0.582-3.3-2.048-4.128-4.025-4.128
		c-13.527,0-44.539,68.297-55.325,115.636c-14.915,21.115-29.387,37.281-36.977,37.281c-0.991,0-1.6-0.658-1.86-2.145
		c-2.734-15.505,38.865-108.87,58.995-142.52c0.109-0.331,0.188-0.827,0.127-1.153c-0.351-1.98-4.044-3.301-6.851-3.301
		c-1.648,0-3.045,0.495-3.198,1.484C167.521,64.66,131.907,94.683,80.112,94.683c-38.6,0-58.706-14.846-61.145-28.704
		c-2.155-12.206,9.199-23.589,33.777-23.589c19.134,0,47.292,9.072,50.859,25.569c0,0,7.135-1.648,6.289-6.434
		c-2.468-14.019-34.955-24.247-62.173-24.247c-35.797,0-49.966,13.196-47.435,27.547c3.025,17.156,29.957,36.126,73.011,36.126
		c49.49,0,81.891-23.92,97.699-40.912c0.438-0.328,0.41-0.492,0.904-0.492c0.329,0,0.417,0.492,0.417,0.492
		c-16.52,23.262-55.917,102.935-51.408,128.504c0.899,5.114,3.544,7.916,8.324,7.916c8.908,0,25.094-14.845,42.052-35.63
		c-1.431,8.743-1.738,16.332-0.778,21.781c1.044,5.933,3.795,9.393,8.418,9.393C226.105,192.003,268.819,3.957,334.474,3.957z
		 M220.289,54.27c0.989,0,1.601,0.658,1.804,1.81c1.312,7.425-13.414,37.114-31.39,66.148
		C199.838,88.909,212.897,54.431,220.289,54.27z"/>
	<path style="fill:#2B388F;" d="M346.834,156.373c-11.464,17.322-19.489,26.063-24.276,26.063c-3.133,0-4.801-1.979-5.382-5.275
		c-1.191-6.764,2.279-19.797,8.348-34.969c34.016-30.685,77.486-84.457,74.312-102.44c-0.666-3.792-3.522-5.938-8.797-5.938
		c-13.176,0-77.419,86.927-87.491,130.352c-8.65,12.133-14.925,18.271-18.927,18.271c-3.138,0-4.802-1.979-5.383-5.275
		c-1.195-6.764,2.282-19.797,8.348-34.969c34.014-30.685,77.484-84.457,74.314-102.44c-0.67-3.792-3.523-5.938-8.802-5.938
		c-13.214,0-77.776,87.406-87.579,130.711c-8.519,11.898-14.712,17.911-18.674,17.911c-2.309,0-4.005-2.142-4.766-6.432
		c-2.293-13.03,16.359-42.888,24.456-55.921c0.104-0.33,0.241-0.492,0.183-0.827c-0.235-1.318-2.136-1.807-5.103-1.807
		c-4.616,0-5.28,0-8.569,3.791c-8.558,10.394-27.535,44.04-25.036,58.227c1.109,6.27,5.015,9.733,10.296,9.733
		c6.842,0,16.328-5.694,26.124-18.121c-0.255,2.678-0.213,5.105,0.162,7.235c1.104,6.268,5.239,10.059,12.99,10.059
		c6.572,0,15.415-5.471,24.816-17.528c-0.279,2.769-0.251,5.278,0.135,7.469c1.106,6.268,5.241,10.059,12.991,10.059
		c8.408,0,20.535-8.907,32.787-29.191c0.247-0.496,0.183-0.832,0.133-1.159C348.24,156.867,346.834,156.373,346.834,156.373z
		 M390.177,43.875c1.154,0,1.93,0.664,2.128,1.816c1.834,10.389-35.538,63.177-63.74,89.404
		C346.076,95.011,377.968,43.875,390.177,43.875z M352.234,43.875c1.157,0,1.934,0.664,2.134,1.816
		c1.833,10.389-35.539,63.177-63.746,89.404C308.132,95.011,340.025,43.875,352.234,43.875z"/>
	<path style="fill:#2B388F;" d="M172.102,235.795c-2.103,0-3.907,1.503-3.907,3.907c0,2.224,1.983,3.666,3.907,3.666
		c2.104,0,3.907-1.382,3.907-3.666C176.009,237.237,174.207,235.795,172.102,235.795z"/>
	<path style="fill:#2B388F;" d="M196.925,239.1v-0.15c2.825-1.052,4.087-2.494,4.087-4.899c0-1.804-0.6-3.185-2.283-4.087
		c-1.082-0.602-3.006-0.812-5.29-0.812c-1.623,0-3.426,0.09-4.389,0.09c-2.524,0.029-3.967-0.09-4.387-0.09
		c-0.181,0-0.241,0.09-0.241,0.27v0.691c0,0.181,0.06,0.241,0.241,0.241h0.961c1.142,0,1.624,0.06,1.713,1.804
		c0.031,0.511,0.09,4.177,0.09,5.259v3.546c0,2.465-0.06,6.432-0.12,7.153c-0.09,0.932-0.301,1.292-1.202,1.292h-1.292
		c-0.12,0-0.21,0.06-0.21,0.21v0.751c0,0.15,0.09,0.241,0.21,0.241c0.631,0,1.893-0.09,4.237-0.09c1.203,0,3.187,0.09,4.389,0.09
		c3.366,0,5.29-0.331,6.552-1.052c1.443-0.783,2.344-2.946,2.344-4.568C202.335,241.805,200.351,240.003,196.925,239.1z
		 M191.095,236.396c0-2.524,0.06-5.109,0.089-5.68c0.031-0.241,0.21-0.421,0.391-0.481c0.241-0.06,0.6-0.06,0.901-0.06
		c0.902,0,2.344,0.27,3.426,1.052c0.962,0.721,1.323,1.923,1.323,3.066c0,1.322-0.421,2.645-1.563,3.546
		c-0.662,0.54-1.864,0.872-3.187,0.872c-0.481,0-0.901,0-1.382-0.031V236.396z M193.679,249.649c-1.923,0-2.584-1.171-2.584-3.997
		v-6.01h0.781c1.021,0,2.284,0.06,3.426,0.54c1.683,0.662,2.885,2.224,2.885,4.688C198.187,248.538,196.023,249.649,193.679,249.649
		z"/>
	<path style="fill:#2B388F;" d="M225.625,229.363c0-0.15-0.06-0.21-0.241-0.21c-0.3,0-0.961,0.09-2.885,0.09
		c-2.104,0-3.366-0.09-3.667-0.09c-0.12,0-0.18,0.06-0.18,0.21v0.751c0,0.15,0.06,0.241,0.24,0.241h0.783
		c0.901,0,1.081,0.54,1.021,1.082c-0.06,0.751-3.937,7.003-4.958,8.686c-0.812-1.683-4.418-8.355-4.478-8.896
		c-0.061-0.631,0.18-0.872,0.841-0.872h0.781c0.18,0,0.24-0.12,0.24-0.301v-0.691c0-0.15-0.06-0.21-0.24-0.21
		c-0.301,0-1.383,0.09-4.449,0.09c-2.284,0-3.726-0.09-3.967-0.09c-0.18,0-0.241,0.06-0.241,0.18v0.812
		c0,0.15,0.061,0.21,0.241,0.21h0.54c0.482,0,1.142,0.241,1.503,0.662c0.841,1.052,5.71,9.708,6.191,10.609v1.443
		c0,2.825-0.06,5.169-0.089,5.589c-0.031,0.451-0.271,0.752-1.053,0.752h-1.231c-0.15,0-0.21,0.12-0.21,0.24v0.692
		c0,0.149,0.06,0.27,0.21,0.27c0.27,0,1.231-0.09,4.177-0.09c2.705,0,3.907,0.09,4.238,0.09c0.149,0,0.21-0.09,0.21-0.301v-0.691
		c0-0.121-0.061-0.21-0.21-0.21h-0.992c-0.602,0-1.082-0.061-1.173-1.022c-0.031-0.33-0.09-2.315-0.09-3.457v-3.666
		c1.142-1.983,6.131-9.677,6.612-10.219c0.482-0.51,1.203-0.691,1.624-0.691h0.66c0.181,0,0.241-0.12,0.241-0.301V229.363z"/>
	<path style="fill:#2B388F;" d="M243.927,231.196c-2.465-1.983-4.869-2.404-7.093-2.404c-2.584,0-5.83,0.602-8.475,3.847
		c-2.254,2.795-2.765,5.651-2.765,7.453c0,4.329,2.254,7.605,4.387,8.897c2.405,1.442,4.989,1.983,6.793,1.983
		c4.508,0,7.093-1.864,9.017-4.268c1.623-2.045,2.223-4.389,2.223-6.613C248.013,236.006,246.181,233.03,243.927,231.196z
		 M237.014,249.649c-2.525,0-7.333-2.765-7.333-10.578c0-2.405,0.871-5.5,2.705-7.273c2.043-1.983,3.787-1.684,4.327-1.684
		c2.885,0,7.333,3.727,7.333,10.279C244.047,242.918,243.086,249.649,237.014,249.649z"/>
	<path style="fill:#2B388F;" d="M262.978,239.1v-0.15c2.825-1.052,4.087-2.494,4.087-4.899c0-1.804-0.6-3.185-2.283-4.087
		c-1.082-0.602-3.006-0.812-5.29-0.812c-1.623,0-3.426,0.09-4.389,0.09c-2.524,0.029-3.967-0.09-4.387-0.09
		c-0.181,0-0.241,0.09-0.241,0.27v0.691c0,0.181,0.06,0.241,0.241,0.241h0.961c1.142,0,1.624,0.06,1.713,1.804
		c0.031,0.511,0.09,4.177,0.09,5.259v3.546c0,2.465-0.06,6.432-0.12,7.153c-0.09,0.932-0.301,1.292-1.202,1.292h-1.292
		c-0.12,0-0.21,0.06-0.21,0.21v0.751c0,0.15,0.09,0.241,0.21,0.241c0.631,0,1.893-0.09,4.237-0.09c1.203,0,3.187,0.09,4.389,0.09
		c3.366,0,5.29-0.331,6.552-1.052c1.443-0.783,2.344-2.946,2.344-4.568C268.388,241.805,266.404,240.003,262.978,239.1z
		 M257.148,236.396c0-2.524,0.06-5.109,0.089-5.68c0.031-0.241,0.21-0.421,0.391-0.481c0.241-0.06,0.6-0.06,0.901-0.06
		c0.902,0,2.344,0.27,3.426,1.052c0.962,0.721,1.323,1.923,1.323,3.066c0,1.322-0.421,2.645-1.563,3.546
		c-0.662,0.54-1.864,0.872-3.187,0.872c-0.481,0-0.901,0-1.382-0.031V236.396z M259.732,249.649c-1.923,0-2.584-1.171-2.584-3.997
		v-6.01h0.781c1.021,0,2.284,0.06,3.426,0.54c1.683,0.662,2.885,2.224,2.885,4.688C264.24,248.538,262.076,249.649,259.732,249.649z
		"/>
	<path style="fill:#2B388F;" d="M281.368,235.795c-2.103,0-3.907,1.503-3.907,3.907c0,2.224,1.983,3.666,3.907,3.666
		c2.104,0,3.907-1.382,3.907-3.666C285.275,237.237,283.472,235.795,281.368,235.795z"/>
</g>
</svg>
