<?xml version="1.0" encoding="utf-8"?>
<!-- Generator: Adobe Illustrator 17.1.0, SVG Export Plug-In . SVG Version: 6.00 Build 0)  -->
<!DOCTYPE svg PUBLIC "-//W3C//DTD SVG 1.1//EN" "http://www.w3.org/Graphics/SVG/1.1/DTD/svg11.dtd">
<svg version="1.1" id="Layer_1" xmlns="http://www.w3.org/2000/svg" xmlns:xlink="http://www.w3.org/1999/xlink" x="0px" y="0px"
	 viewBox="0 0 400 196.458" style="enable-background:new 0 0 400 196.458;" xml:space="preserve">
<g id="logo">
	<path style="fill:#231F20;" d="M271.51,82.801c-7.424,0-13.489,6.766-12.122,14.516c0.957,5.444,5.45,9.404,11.223,9.404
		c7.588,0,13.654-6.76,12.287-14.516C281.965,86.928,277.281,82.801,271.51,82.801z"/>
	<path style="fill:#231F20;" d="M346.834,156.372c-11.466,17.324-19.491,26.064-24.276,26.064c-3.132,0-4.802-1.979-5.384-5.274
		c-1.191-6.767,2.281-19.799,8.35-34.973c34.015-30.68,77.484-84.455,74.312-102.436c-0.668-3.797-3.524-5.939-8.798-5.939
		c-13.178,0-77.422,86.931-87.493,130.354c-8.648,12.133-14.924,18.268-18.925,18.268c-3.138,0-4.8-1.979-5.383-5.274
		c-1.195-6.767,2.283-19.799,8.348-34.973c34.017-30.68,77.483-84.455,74.314-102.436c-0.67-3.797-3.521-5.939-8.8-5.939
		c-13.214,0-77.776,87.406-87.578,130.71c-8.52,11.9-14.713,17.912-18.675,17.912c-2.309,0-4.005-2.142-4.766-6.433
		c-2.292-13.033,16.357-42.885,24.456-55.918c0.105-0.33,0.241-0.494,0.183-0.827c-0.236-1.322-2.137-1.811-5.101-1.811
		c-4.618,0-5.282,0-8.57,3.79c-8.558,10.395-27.537,44.044-25.038,58.229c1.111,6.271,5.016,9.736,10.298,9.736
		c6.841,0,16.326-5.663,26.121-18.092c-0.252,2.666-0.21,5.083,0.165,7.205c1.105,6.271,5.238,10.061,12.989,10.061
		c6.572,0,15.411-5.439,24.811-17.495c-0.276,2.755-0.246,5.252,0.139,7.434c1.109,6.271,5.242,10.061,12.994,10.061
		c8.408,0,20.534-8.909,32.787-29.195c0.247-0.496,0.183-0.827,0.132-1.159C348.237,156.869,346.834,156.372,346.834,156.372z
		 M390.175,43.874c1.157,0,1.927,0.665,2.127,1.818c1.834,10.388-35.536,63.172-63.74,89.404
		C346.073,95.011,377.966,43.874,390.175,43.874z M352.233,43.874c1.157,0,1.934,0.665,2.132,1.818
		c1.834,10.388-35.539,63.172-63.744,89.404C308.131,95.011,340.025,43.874,352.233,43.874z"/>
	<path style="fill:#231F20;" d="M334.472,3.953c20.123,0,26.309,17.323,26.309,17.323c6.942-4.617,9.441-8.249,8.91-11.22
		C368.413,2.8,349.279,0,339.223,0c-90.401,0-116.314,183.264-154.255,183.264c-2.309,0-3.637-0.99-4.014-3.133
		c-1.135-6.433,1.032-21.282,4.934-38.436c26.747-37.278,51.068-83.633,47.29-105.073c-0.584-3.302-2.047-4.13-4.027-4.13
		c-13.527,0-44.539,68.297-55.325,115.638c-14.915,21.113-29.386,37.278-36.976,37.278c-0.99,0-1.599-0.659-1.859-2.143
		c-2.734-15.508,38.865-108.872,58.996-142.521c0.108-0.333,0.187-0.827,0.127-1.153c-0.35-1.979-4.044-3.301-6.851-3.301
		c-1.648,0-3.045,0.495-3.199,1.485C167.521,64.657,131.906,94.68,80.111,94.68c-38.6,0-58.705-14.841-61.144-28.701
		c-2.155-12.204,9.198-23.588,33.777-23.588c19.134,0,47.291,9.072,50.859,25.567c0,0,7.134-1.647,6.289-6.433
		c-2.468-14.022-34.954-24.248-62.173-24.248c-35.796,0-49.965,13.196-47.433,27.549C3.31,81.98,30.243,100.95,73.297,100.95
		c49.489,0,81.89-23.92,97.698-40.911c0.438-0.333,0.411-0.494,0.906-0.494c0.328,0,0.416,0.494,0.416,0.494
		c-16.52,23.263-55.917,102.93-51.409,128.499c0.9,5.118,3.544,7.919,8.324,7.919c8.909,0,25.095-14.849,42.052-35.63
		c-1.43,8.74-1.738,16.334-0.778,21.777c1.044,5.934,3.796,9.399,8.417,9.399C226.104,192.004,268.819,3.953,334.472,3.953z
		 M220.289,54.269c0.988,0,1.6,0.659,1.802,1.812c1.313,7.424-13.414,37.115-31.389,66.147
		C199.837,88.91,212.896,54.432,220.289,54.269z"/>
</g>
</svg>
