<?xml version="1.0" encoding="utf-8"?>
<!-- Generator: Adobe Illustrator 17.1.0, SVG Export Plug-In . SVG Version: 6.00 Build 0)  -->
<!DOCTYPE svg PUBLIC "-//W3C//DTD SVG 1.1//EN" "http://www.w3.org/Graphics/SVG/1.1/DTD/svg11.dtd">
<svg version="1.1" id="Layer_1" xmlns="http://www.w3.org/2000/svg" xmlns:xlink="http://www.w3.org/1999/xlink" x="0px" y="0px"
	 viewBox="0 0 333.529 158.308" style="enable-background:new 0 0 333.529 158.308;" xml:space="preserve">
<g>
	<g style="opacity:0.24;">
		<path style="fill:none;" d="M289.769,81.056c10.999-13.964,20.535-28.308,24.458-37.111
			C306.882,52.432,297.935,66.255,289.769,81.056z"/>
		<path style="fill:none;" d="M327.327,36.819c-0.161-0.929-0.784-1.464-1.713-1.464c-1.162,0-2.556,0.593-4.117,1.664
			c-0.17,3.949-4.414,12.339-10.88,22.441c-7.283,10.89-17.221,23.123-27.607,34.431c-2.546,5.078-4.927,10.127-7.046,14.971
			C298.694,87.729,328.806,45.19,327.327,36.819z"/>
		<path style="fill:none;" d="M259.209,81.027c11.004-13.964,20.574-28.342,24.491-37.136
			C276.352,52.364,267.389,66.202,259.209,81.027z"/>
		<path style="fill:none;" d="M258.487,99.416c-5.253,5.482-10.525,10.638-15.542,15.161c-4.864,12.169-7.653,22.617-6.734,28.089
			c2.412-2.451,5.215-5.914,8.431-10.433C246.772,123.06,251.899,111.498,258.487,99.416z"/>
		<path style="fill:none;" d="M164.875,98.493c14.483-23.395,26.352-47.32,25.296-53.303c-0.165-0.929-0.655-1.459-1.454-1.459
			c-1.529,0.034-3.363,1.902-5.364,5.102c-1.366,5.71-5.56,15.268-11.316,26.343C169.508,82.54,167.052,90.555,164.875,98.493z"/>
		<path style="fill:none;" d="M252.421,93.921c-2.541,5.068-4.918,10.107-7.03,14.941c22.729-21.133,52.845-63.672,51.366-72.043
			c-0.16-0.929-0.788-1.464-1.717-1.464c-1.185,0-2.602,0.613-4.197,1.717c-0.27,4.479-5.613,14.484-13.365,26.138
			C270.505,73.118,261.641,83.887,252.421,93.921z"/>
		<path style="fill:#D7CEC4;" d="M275.079,3.789c11.824,2.665,15.642,13.356,15.642,13.356c1.816-1.206,3.224-2.325,4.322-3.375
			c-1.483-2.787-4.847-7.69-11.014-10.36c-1.052-0.131-2.141-0.219-3.304-0.219C278.82,3.191,276.94,3.41,275.079,3.789z"/>
		<path style="fill:#D7CEC4;" d="M277.478,63.21c7.752-11.654,13.096-21.659,13.365-26.138c-2.104,1.459-4.519,3.793-7.143,6.819
			c-3.917,8.794-13.487,23.171-24.491,37.136c-2.347,4.251-4.628,8.584-6.788,12.894C261.641,83.887,270.505,73.118,277.478,63.21z"
			/>
		<path style="fill:#D7CEC4;" d="M218.061,86.002c0.496,0,0.968-0.092,1.445-0.161c-2.888-1.191-4.975-3.799-5.535-7.072
			c-0.145-0.837-0.156-1.649-0.107-2.447c-1.059,2.004-2.114,4.003-3.164,6.002C212.346,84.567,214.965,86.002,218.061,86.002z"/>
		<path style="fill:#D7CEC4;" d="M221.324,67.106c-0.742-0.204-1.513-0.34-2.318-0.365c-0.374,0.686-0.746,1.372-1.118,2.058
			C218.909,68.03,220.067,67.438,221.324,67.106z"/>
		<path style="fill:#D7CEC4;" d="M267.563,145.015c4.17-3.823,8.629-9.319,13.11-16.746c0.199-0.399,0.15-0.666,0.107-0.929
			c-0.165-0.934-1.298-1.333-1.298-1.333c-5.066,7.656-9.278,13.181-12.703,16.649c0.006,0.029,0.003,0.073,0.008,0.102
			C266.942,143.639,267.205,144.388,267.563,145.015z"/>
		<path style="fill:#D7CEC4;" d="M183.353,48.833c-3.487,5.569-7.488,15.2-11.316,26.343
			C177.793,64.101,181.987,54.543,183.353,48.833z"/>
		<path style="fill:#D7CEC4;" d="M321.497,37.019c-2.135,1.464-4.594,3.833-7.271,6.926c-3.923,8.804-13.459,23.148-24.458,37.111
			c-2.338,4.231-4.609,8.545-6.759,12.835c10.387-11.308,20.324-23.541,27.607-34.431C317.083,49.358,321.327,40.968,321.497,37.019
			z"/>
		<path style="fill:#D7CEC4;" d="M244.641,132.233c-3.216,4.519-6.019,7.981-8.431,10.433c0.005,0.029,0.003,0.068,0.007,0.092
			c0.153,0.871,0.411,1.61,0.762,2.233c2.171-1.99,4.411-4.387,6.702-7.33c-0.16,1.601-0.155,3.054-0.044,4.421
			c1.844-2.194,3.862-4.849,6.095-8.055c3.21-14.12,13.174-33.77,24.728-52.432c-5.095,6.085-10.521,12.13-15.973,17.821
			C251.899,111.498,246.772,123.06,244.641,132.233z"/>
		<path style="fill:#D7CEC4;" d="M317.356,27.461c-0.684-0.126-1.42-0.214-2.252-0.214c-2.393,0-6.89,3.584-12.5,9.514
			c-0.584,2.826-1.889,6.182-3.75,9.897C306.386,37.194,313.059,30.151,317.356,27.461z"/>
		<path style="fill:#D7CEC4;" d="M213.082,137.856c-0.145,1.532-0.126,2.918-0.019,4.236c1.795-2.13,3.756-4.693,5.917-7.787
			c7.362-33.152,52.508-97.383,67.708-106.858c-0.66-0.117-1.362-0.199-2.157-0.199c-10.645,0-62.598,70.355-70.523,105.263
			c-2.895,4.042-5.443,7.218-7.675,9.572c0.182,0.948,0.428,1.751,0.724,2.427C209.029,142.632,211.044,140.443,213.082,137.856z"/>
		<path style="fill:#D7CEC4;" d="M159.009,147.525c6.403-5.904,12.791-15.044,19.269-25.978
			c19.024-38.4,41.012-103.983,81.671-119.791c-56.326,15.049-78.14,122.618-103.023,142.686c0.029,0.243,0.056,0.491,0.095,0.71
			C157.25,146.45,157.91,147.218,159.009,147.525z"/>
		<path style="fill:#D7CEC4;" d="M208.839,98.561c2.335-2.753,3.035-3.094,5.7-3.133c-0.62-0.564-1.931-0.788-3.725-0.788
			c-3.721,0-4.256,0-6.906,3.054c-1.475,1.79-3.339,4.47-5.329,7.636c-2.546,4.727-5.07,9.3-7.58,13.633
			c-4.685,9.567-8.312,19.723-7.267,25.652c0.834,4.718,3.646,7.432,7.474,7.777c-1.282-1.352-2.205-3.239-2.625-5.651
			C186.558,135.005,201.913,107.16,208.839,98.561z"/>
		<path style="fill:#D7CEC4;" d="M221.108,151.577c-1.532-1.416-2.507-3.366-2.926-5.788c-0.059-0.335-0.07-0.71-0.104-1.07
			c-1.139,1.075-2.258,2.023-3.356,2.865C216.042,149.675,218.119,151.09,221.108,151.577z"/>
		<path style="fill:#D7CEC4;" d="M217.986,141.625c0.005-0.078,0-0.151,0.002-0.229c-0.607,0.734-1.211,1.411-1.811,2.067
			C216.754,142.909,217.356,142.306,217.986,141.625z"/>
		<path style="fill:#D7CEC4;" d="M119.982,147.676c0.078,0.443,0.204,0.759,0.36,1.026c5.445-4.951,11.491-11.518,17.68-19.105
			c-0.022,0.141-0.04,0.272-0.062,0.414c2.209-2.889,4.463-5.973,6.73-9.198c0.891-3.93,1.955-8.04,3.15-12.247
			c9.465-33.886,27.612-74.232,38.342-82.063c-0.45-0.228-0.964-0.321-1.53-0.321c-10.899,0-35.89,55.034-44.581,93.181
			c-7.141,10.107-14.144,18.789-19.942,24.178C119.879,145.264,119.806,146.688,119.982,147.676z"/>
		<path style="fill:#D7CEC4;" d="M251.838,151.611c-1.555-1.42-2.542-3.385-2.965-5.822c-0.068-0.394-0.096-0.827-0.132-1.255
			c-1.179,1.124-2.337,2.111-3.468,2.962C246.612,149.665,248.73,151.139,251.838,151.611z"/>
		<path style="fill:#D7CEC4;" d="M137.394,147.145c0.832,4.723,3.009,7.491,6.65,7.564c-1.003-1.309-1.695-3.118-2.089-5.37
			c-0.516-2.962-0.574-6.703-0.226-10.968c-1.598,1.775-3.172,3.458-4.716,5.043C137.076,144.762,137.195,146.017,137.394,147.145z"
			/>
		<path style="fill:#D7CEC4;" d="M48.046,34.456c14.813,1.469,32.892,8.536,35.438,20.307c0,0,2.403-0.56,3.917-2
			c-3.424-9.878-17.437-16.23-30.472-18.497c-1.102-0.068-2.181-0.107-3.222-0.107C51.701,34.159,49.833,34.275,48.046,34.456z"/>
		<path style="fill:#D7CEC4;" d="M76.424,76.284c24.881-1.804,44.73-12.417,58.974-25.433c0.839-0.842,1.642-1.664,2.391-2.471
			c0.309-0.229,0.345-0.355,0.61-0.384c6.016-5.968,10.907-12.32,14.613-18.473c-0.71-0.175-1.442-0.282-2.115-0.282
			c-1.328,0-2.452,0.399-2.578,1.197c-12.749,20.725-39.57,43.745-78.403,45.71c1.887,0.098,3.832,0.151,5.844,0.151
			C75.984,76.299,76.2,76.29,76.424,76.284z"/>
		<path style="fill:#D7CEC4;" d="M4.339,51.883c-1.5-8.692,4.285-16.858,18.835-20.613C5.594,34.368-1.4,43.001,0.229,52.238
			c2.223,12.607,20.506,26.391,50.017,28.731C23.143,77.612,6.46,64.193,4.339,51.883z"/>
		<path style="fill:#D7CEC4;" d="M97.428,151.932c0.62,3.521,2.276,5.667,5.146,6.221c-0.69-1.021-1.164-2.33-1.44-3.901
			c-0.491-2.806,0.068-7.077,1.398-12.349c4.066-22.651,21.331-60.219,33.687-82.077c-2.308,1.747-4.786,3.473-7.461,5.151
			C113.97,91.722,94.541,135.565,97.428,151.932z"/>
		<path style="fill:#D7CEC4;" d="M143.396,48.113c0.039-0.078,0.078-0.156,0.117-0.234c-0.022-0.087-0.105-0.365-0.326-0.365
			c-0.404,0-0.379,0.136-0.734,0.409c-2.431,2.671-5.353,5.55-8.757,8.463c-0.491,0.812-0.992,1.664-1.503,2.539
			c2.962-2.048,5.759-4.208,8.371-6.455C141.57,50.852,142.525,49.373,143.396,48.113z"/>
		<path style="fill:#D7CEC4;" d="M267.044,3.303c0.819-0.073,1.646-0.112,2.476-0.112c2.023,0,3.872,0.219,5.56,0.598
			c1.86-0.379,3.74-0.598,5.647-0.598c1.163,0,2.252,0.088,3.304,0.219c-2.354-1.017-5.103-1.717-8.33-1.839
			C272.76,1.698,269.877,2.306,267.044,3.303z"/>
		<path style="fill:#D7CEC4;" d="M259.209,81.027c-3.564,4.519-7.27,8.998-10.99,13.23c-1.406,2.807-2.758,5.603-4.052,8.366
			c2.758-2.806,5.521-5.725,8.254-8.701C254.581,89.611,256.863,85.278,259.209,81.027z"/>
		<path style="fill:#D7CEC4;" d="M290.843,37.072c0.022-0.375,0.022-0.725-0.028-1.021c-0.098-0.564-0.373-0.968-0.762-1.216
			c-1.306,0.423-2.809,1.376-4.461,2.762c-0.033,1.474-0.705,3.628-1.892,6.294C286.324,40.866,288.739,38.532,290.843,37.072z"/>
		<path style="fill:#D7CEC4;" d="M262.964,145.901c0.25,0.812,0.612,1.483,1.091,2.009c1.142-0.822,2.313-1.8,3.508-2.895
			c-0.357-0.627-0.621-1.376-0.776-2.257c-0.005-0.029-0.002-0.073-0.008-0.102C265.379,144.077,264.097,145.186,262.964,145.901z"
			/>
		<path style="fill:#D7CEC4;" d="M183.353,48.833c0.425-1.78,0.607-3.229,0.442-4.188c-0.143-0.827-0.552-1.323-1.18-1.444
			c-1.082,0.189-2.303,1.23-3.616,2.942c-0.053,5.263-6.145,18.813-14.824,34.455c-1.912,5.895-3.755,12.072-5.44,18.215
			c4.878-8.079,9.431-16.187,13.302-23.638C175.864,64.033,179.865,54.402,183.353,48.833z"/>
		<path style="fill:#D7CEC4;" d="M280.332,92.496c-1.5,2.962-2.949,5.915-4.331,8.837c2.345-2.407,4.684-4.908,7.009-7.441
			c2.149-4.29,4.421-8.604,6.759-12.835C286.702,84.942,283.53,88.804,280.332,92.496z"/>
		<path style="fill:#D7CEC4;" d="M321.497,37.019c0.015-0.336,0.054-0.701,0.008-0.968c-0.08-0.477-0.275-0.846-0.565-1.104
			c-1.413,0.545-3.045,1.673-4.835,3.268c-0.17,1.44-0.844,3.404-1.879,5.729C316.904,40.852,319.363,38.483,321.497,37.019z"/>
		<path style="fill:#D7CEC4;" d="M236.21,142.666c-1.639,1.663-3.1,2.874-4.373,3.575c0.295,0.812,0.73,1.444,1.274,1.931
			c1.253-0.875,2.55-1.97,3.867-3.181c-0.351-0.622-0.608-1.362-0.762-2.233C236.213,142.734,236.215,142.695,236.21,142.666z"/>
		<path style="fill:#D7CEC4;" d="M264.18,89.417c-1.997,3.351-3.889,6.692-5.693,9.999c5.452-5.69,10.878-11.736,15.973-17.821
			c7.935-12.816,16.62-25.17,24.395-34.937c1.861-3.716,3.166-7.072,3.75-9.897c-1.834,1.936-3.787,4.119-5.824,6.518
			C291.298,55.72,278.496,73.138,264.18,89.417z"/>
		<path style="fill:#D7CEC4;" d="M201.49,146.188c0.328,0.876,0.75,1.512,1.225,1.999c1.409-1.017,2.865-2.271,4.341-3.677
			c-0.296-0.676-0.542-1.479-0.724-2.427C204.503,144.009,202.883,145.4,201.49,146.188z"/>
		<path style="fill:#D7CEC4;" d="M153.822,149.879c1.075-0.009,2.138-0.219,3.193-0.588c0.664-0.54,1.33-1.152,1.994-1.766
			c-1.099-0.307-1.759-1.075-1.989-2.373c-0.039-0.219-0.065-0.467-0.095-0.71c-2.066,1.669-4.156,2.738-6.289,3.093
			C151.006,149.105,152.047,149.864,153.822,149.879z"/>
		<path style="fill:#D7CEC4;" d="M190.998,118.964c2.51-4.334,5.034-8.906,7.58-13.633
			C196.088,109.29,193.41,114.033,190.998,118.964z"/>
		<path style="fill:#2B388F;" d="M190.998,118.964c2.51-4.334,5.034-8.906,7.58-13.633
			C196.088,109.29,193.41,114.033,190.998,118.964z"/>
		<path style="fill:#D7CEC4;" d="M217.986,141.625c-0.63,0.681-1.231,1.284-1.809,1.839c-0.783,0.856-1.562,1.678-2.335,2.441
			c0.234,0.613,0.551,1.153,0.881,1.678c1.099-0.841,2.218-1.79,3.356-2.865C217.986,143.746,217.948,142.714,217.986,141.625z"/>
		<path style="fill:#D7CEC4;" d="M113.323,149.884c0.19,1.099,0.621,1.625,1.277,1.727c1.32-0.098,2.887-0.773,4.63-1.897
			c0.365-0.321,0.739-0.676,1.111-1.011c-0.156-0.268-0.282-0.583-0.36-1.026c-0.175-0.988-0.103-2.412,0.146-4.134
			c-2.568,2.388-4.9,4.134-6.899,5.063C113.236,149.076,113.26,149.514,113.323,149.884z"/>
		<path style="fill:#D7CEC4;" d="M244.573,146.28c0.189,0.442,0.457,0.817,0.7,1.216c1.131-0.851,2.289-1.838,3.468-2.962
			c-0.067-0.836-0.102-1.707-0.085-2.626C247.271,143.556,245.914,144.977,244.573,146.28z"/>
		<path style="fill:#D7CEC4;" d="M137.054,138.128c-0.107,1.896-0.119,3.657-0.042,5.287c1.544-1.585,3.119-3.268,4.716-5.043
			c0.179-2.184,0.457-4.489,0.848-6.917C140.719,133.78,138.875,136.003,137.054,138.128z"/>
		<path style="fill:#D7CEC4;" d="M132.192,58.926c-1.107,1.887-2.256,3.92-3.434,6.05c2.675-1.678,5.153-3.404,7.461-5.151
			c1.537-2.714,2.994-5.18,4.344-7.354C137.951,54.718,135.155,56.878,132.192,58.926z"/>
	</g>
	<g>
		<path style="fill:#FFFFFF;" d="M229.991,66.727c-5.981,0-10.87,5.447-9.767,11.698c0.768,4.382,4.393,7.578,9.042,7.578
			c6.114,0,11.002-5.453,9.903-11.698C238.415,70.049,234.642,66.727,229.991,66.727z"/>
		<path style="fill:#FFFFFF;" d="M290.688,126.007c-9.236,13.96-15.705,21.002-19.562,21.002c-1.689,0-2.838-0.725-3.562-1.994
			c-0.357-0.627-0.621-1.376-0.776-2.257c-0.005-0.029-0.002-0.073-0.008-0.102c-0.911-5.477,1.873-15.92,6.74-28.079
			c27.407-24.723,62.437-68.055,59.878-82.544c-0.534-3.054-2.836-4.786-7.086-4.786c-10.619,0-62.328,69.985-70.463,104.986
			c-6.991,9.815-12.061,14.776-15.292,14.776c-1.702,0-2.852-0.734-3.577-2.018c-0.351-0.622-0.608-1.362-0.762-2.233
			c-0.004-0.024-0.002-0.064-0.007-0.092c-0.919-5.472,1.87-15.919,6.734-28.089c5.017-4.523,10.289-9.679,15.542-15.161
			c5.452-5.69,10.878-11.736,15.973-17.821c10.421-12.441,19.426-25.01,24.395-34.937c1.861-3.716,3.166-7.072,3.75-9.897
			c0.372-1.795,0.459-3.385,0.224-4.728c-0.539-3.054-2.835-4.786-7.091-4.786c-10.646,0-62.598,70.355-70.523,105.263
			c-2.695,3.765-5.105,6.814-7.228,9.115c-0.63,0.681-1.231,1.284-1.809,1.839c-2.462,2.349-4.483,3.545-6.058,3.545
			c-1.289,0-2.332-0.846-3.062-2.499c-0.296-0.676-0.542-1.479-0.724-2.427c-0.018-0.088-0.039-0.165-0.057-0.253
			c-1.849-10.501,13.181-34.562,19.708-45.063c0.083-0.268,0.195-0.399,0.146-0.666c-0.19-1.061-1.722-1.46-4.11-1.46
			c-3.721,0-4.256,0-6.907,3.054c-6.895,8.375-22.188,35.491-20.174,46.921c0.895,5.054,4.042,7.845,8.297,7.845
			c3.225,0,7.183-1.581,11.486-4.878c1.099-0.841,2.218-1.79,3.356-2.865c2.027-1.907,4.109-4.198,6.211-6.863
			c-0.207,2.159-0.173,4.114,0.128,5.831c0.891,5.054,4.223,8.108,10.468,8.108c2.97,0,6.515-1.376,10.389-4.3
			c1.131-0.851,2.289-1.838,3.468-2.962c1.997-1.887,4.054-4.188,6.145-6.873c-0.223,2.232-0.207,4.261,0.105,6.026
			c0.891,5.054,4.222,8.108,10.468,8.108c6.774,0,16.547-7.179,26.42-23.526c0.199-0.399,0.151-0.666,0.106-0.929
			C291.821,126.406,290.688,126.007,290.688,126.007z M283.01,93.892c2.149-4.29,4.421-8.604,6.759-12.835
			c8.166-14.801,17.113-28.624,24.458-37.111c2.677-3.093,5.136-5.462,7.271-6.926c1.561-1.07,2.955-1.664,4.117-1.664
			c0.929,0,1.552,0.535,1.713,1.464c1.479,8.371-28.634,50.91-51.363,72.043C278.083,104.018,280.464,98.969,283.01,93.892z
			 M252.421,93.921c2.16-4.31,4.441-8.643,6.788-12.894c8.18-14.825,17.142-28.663,24.491-37.136
			c2.624-3.025,5.039-5.359,7.143-6.819c1.596-1.104,3.013-1.717,4.197-1.717c0.929,0,1.557,0.535,1.717,1.464
			c1.478,8.371-28.638,50.91-51.366,72.043C247.503,104.028,249.88,98.989,252.421,93.921z"/>
		<path style="fill:#FFFFFF;" d="M210.699,82.326c1.05-2,2.105-3.999,3.164-6.002c1.332-2.515,2.675-5.024,4.024-7.524
			c0.372-0.686,0.744-1.372,1.118-2.058c16.733-30.701,34.915-58.634,56.073-62.953c1.86-0.379,3.74-0.598,5.647-0.598
			c1.163,0,2.252,0.088,3.304,0.219c13.587,1.727,17.898,13.735,17.898,13.735c5.594-3.721,7.607-6.644,7.179-9.037
			C308.075,2.257,292.657,0,284.554,0c-72.846,0-93.726,147.676-124.3,147.676c-0.465,0-0.88-0.049-1.245-0.151
			c-1.099-0.307-1.759-1.075-1.989-2.373c-0.039-0.219-0.065-0.467-0.095-0.71c-0.661-5.506,1.061-17.023,4.073-30.263
			c21.552-30.039,41.148-67.393,38.104-84.67c-0.468-2.66-1.649-3.327-3.244-3.327c-10.9,0-35.891,55.034-44.582,93.181
			c-12.019,17.014-23.677,30.039-29.796,30.039c-0.506,0-0.873-0.238-1.138-0.7c-0.156-0.268-0.282-0.583-0.36-1.026
			c-0.175-0.988-0.103-2.412,0.146-4.134c2.877-20.02,32.457-85.74,47.393-110.71c0.088-0.268,0.151-0.667,0.102-0.929
			c-0.282-1.595-3.258-2.661-5.521-2.661c-1.327,0-2.451,0.399-2.577,1.197c-4.556,7.408-10.909,15.107-18.961,22.033
			c-2.612,2.247-5.409,4.407-8.371,6.455c-14.509,10.014-33.22,17.222-55.769,17.358c-0.224,0.005-0.44,0.015-0.663,0.015
			c-2.012,0-3.957-0.053-5.844-0.151c-27.291-1.4-41.588-12.534-43.427-22.981c-1.561-8.838,5.701-17.116,21.557-18.711
			c1.787-0.18,3.655-0.297,5.662-0.297c1.041,0,2.121,0.039,3.222,0.107c15.177,0.914,35.081,8.103,37.76,20.496
			c0,0,5.749-1.328,5.068-5.185C97.769,38.283,71.592,30.039,49.66,30.039c-28.848,0-40.263,10.637-38.225,22.199
			c2.437,13.823,24.139,29.11,58.833,29.11c24.786,0,44.246-7.447,58.49-16.372c2.675-1.678,5.153-3.404,7.461-5.151
			c5.171-3.901,9.443-7.86,12.775-11.445c0.355-0.262,0.33-0.394,0.729-0.394c0.268,0,0.336,0.394,0.336,0.394
			c-13.313,18.746-45.059,82.948-41.426,103.551c0.725,4.12,2.855,6.376,6.708,6.376c4.982,0,12.791-5.768,21.67-14.893
			c1.544-1.585,3.119-3.268,4.716-5.043c2.456-2.734,4.968-5.667,7.501-8.774c-1.153,7.047-1.401,13.161-0.628,17.548
			c0.841,4.786,3.059,7.573,6.785,7.573c11.996,0,23.638-15.097,35.612-35.754c2.412-4.932,5.09-9.674,7.58-13.633
			C202.56,97.929,206.592,90.156,210.699,82.326z M172.036,75.176c3.828-11.143,7.829-20.773,11.316-26.343
			c2.001-3.2,3.835-5.068,5.364-5.102c0.799,0,1.289,0.53,1.454,1.459c1.056,5.983-10.812,29.908-25.296,53.303
			C167.052,90.555,169.508,82.54,172.036,75.176z"/>
	</g>
</g>
</svg>
